<svg xmlns="http://www.w3.org/2000/svg" width="163.29" height="70.018" viewBox="0 0 163.29 70.018">
  <g id="Gruppe_71" transform="translate(-134.861 -48.559)">
    <g id="Gruppe_100">
      <g id="Gruppe_70" transform="translate(265.209 71.648)">
        <path id="Pfad_7" d="M303.79,124.257l-.61-.154-.329-.734-.235-1.034-.047-1.314.047-1.423-.047-1.251.094-1-.047-1.633v-5.794l-.094-.656-.047-1.379V103.94l.047-1.8v-1.21l.094-1.446.047-1.422.094-1.7-.094-1.611.094-1.381V90.435l-.094-.846V87.742l-.047-1.569v-3.5l.187-1.108.142-.513.235-.558.329-.411.564-.461.611-.355.61-.164.894-.426.751-.423.517.008.282.247.235.461.094.4.047,1,.047,1.251v.955l.094,1.355v1.019l-.094,1.318-.047,1.105v4.011l.047,1.378.094,1.165.047,1.123.047,1.887.047,1.379-.047.467.047.678.047,1.187-.047,1.232v.573l-.047.6.047.423-.094,1.318v1.146l-.047,2.187-.141,1.468v1.464l.047,1.06.142,1.46v.509l.047.551.282.375.235.015,2.068-.988,1.034-.429.423-.266.47-.16.752-.3.939-.385.987-.471.752-.55.894-.49.845-.4.705-.273.94-.449.564-.142.845-.4,1.128-.729,1.128-.538.7-.274.658-.313.611-.1.517.2.516.58.094.4V111.4l-.094.681-.141.513-.376.625-.8.954-.657.442-.8.318-2.444,1.167-.8.572-.611.228-2.678,1.278-.7.273-2.773,1.452-9.07,4.331Zm2.35-25.443.188-.536v-.636l-.235.24-.282.326-.047-.1.141-.386.141-.449-.094-.274-.047-.359.094-.3.188-.153.141-.131-.094-.464-.282-.439-.282.071-.142-.06.236-.43.187-.281-.093-.082-.282.2-.235.176-.188-.229-.188-.356-.094-.146-.093.236-.142.577-.047.468.047.36.142.632.187.484-.187.345-.282.389-.141.322.235.079.281.184.188.165.188-.089.141,0,.047.041-.47.733.047.169.188-.026.234-.24.282-.135.094.146-.047.277.094.082Zm-1.081,8.538.047-.277-.282-.121-.329.03-.094.108.047.169.188.229.235.079Zm.893-13.669.188-.345-.047-.359-.188-.229.141-.386.329-.348.094-.173-.094-.209.047-.278.047-.15-.047-.041-.188.026-.235.112-.188-.1-.141-.124-.047-.1.142-.194.47-.1.094-.173-.047-.232v-.509l-.094-.592L306,88.823l.094-.427.094-.362.47-.225v-.191l-.282-.057L306,87.55l-.282-.121-.188-.1.188-.535.423-.52.047-.15-.142-.06-.187-.037-.236-.016-.282.135-.235.368-.094.427-.094.872-.141.959-.094.3.235.079.235.143.188.1.282-.008.188-.089.047.1-.047.213-.141.2-.236.3-.187.153-.188-.1L304.871,90l-.235.239-.094.554.282.184.282-.007-.047.277-.047.341.235.079.187.037.047.233-.094.363-.376.18-.142.194-.141.386v.509l.188.292.141-.131.142-.068.187.166.235.079Zm-1.222,10.643V104.2l-.188.153v.064Zm.047-12.055-.142-.251v.254l.142.187Zm.657,11.782.188-.218.376-.243.376-.307.047-.086-.141-.187-.188-.483-.094-.593-.094-.274.094-.236.141-.258-.094-.146-.094-.337.236-.3.422-.266.094-.236-.235-.206v-.254l-.047-.106-.329.158-.329.22-.047-.169-.47.033-.564.334v.191l.094.018.093-.108.142.06.094.21-.142.449-.047.532.094.209.329-.03.141.06-.141.067-.235.495-.142.449.094.21v.254l-.141.194-.188.218v.064l.188.037.423-.393.376-.435v.382l-.235.558-.235.24-.047.213.047.1Zm.611,2.318.282-.453-.047-.04-.188-.038L306,105.5l-.047-.614.094-.3.188-.154.282-.135.188-.281-.094-.146-.235.049-.376.243-.658.314-.094.173-.094.3-.188.472-.141.513-.094.427.141.059.376-.052.329.034.141.187Zm-1.175-8.8.188-.281.188-.217-.047-.423v-.509l.328-.03.188.419-.094.554-.329.412-.376.306Zm.611,12.378.329-.412.094-.363-.235-.079-.376.18-.235.3-.141.387-.047.277Zm-.564-14.374.141-.131.047.041-.047.149-.141.068Zm.846,12.712.047-.341-.094-.146-.094-.209-.094-.146-.141,0-.281.581-.188.535.094.083.47-.1.141.059Zm-.658,5.535-.047-.1-.094-.019v.128l.094.082Zm.658-1.97v-.382l-.094-.146-.094-.4-.047-.359-.281.2-.188.344.047.3.094.4.093.274-.047.15-.141.194.281-.07Zm-.517-23.31-.141-.314.141-.2.187-.026.047.3v.319Zm-.047,17.276.093-.363.188-.408.141,0,.047.1-.142.386-.141.322-.094.045Zm.658-20.56-.094-.082-.047-.232-.094-.146-.235.048-.141.2v.191l.235.016.235-.049.047.169.094.019Zm-.33,27.788-.094-.209-.141,0v.255l.141.06Zm.282-29.039.047-.214-.094-.145-.047-.169-.094.045-.188.408-.093.362.282-.071Zm-.282,30.312v-.191l-.094.045-.093.172.093.082Zm.094-14.052.094-.109.094.083-.047.149-.142.067Zm13.253,18.883-.705.273-2.866,1.5-4.23,2.02-.516.183-1.223.519-2.3,1.1-.8.318-.376.116-.094-.082v-.191l.141-.259,1.081-.58,3.29-1.571.846-.276,4.558-2.177,2.632-1.32,1.034-.494.611-.228,3.524-1.62.987-.471.8-.509.61-.355.47-.288.47-.48.328-.474.236-.686.141-.9.047-1.677.047-1.359.093-.173.142-.067.094.019.094.082v1.592l-.047,2-.187.854-.329.666-.33.539-.469.479-1.363.905-.846.468-1.316.691-2.3,1.1Zm-12.83-36.53V82.5l-.094.109-.047.086.047.041Zm.376,1.985-.141-.124-.188.09-.047.149.188.037.235.079Zm0,2.356-.047-.233-.093-.082-.094.173-.047.213.142,0Zm.376,6.952-.141-.061-.188.09.141.06Zm-.141-5.154-.047-.041-.094.109.094.019Zm.141,12.921-.047-.233-.142-.124-.047.15.047.233.094.082Zm1.081,17.056v-.128l-.141,0-.047.086.094.082Zm1.551-5.58-.047-1.25v-1.274l-.047-1.951-.047-1.506-.047-1.569.047-1.677.047-2.124V99.326l.047-2.188v-4.52l.047-2.7.047-2.442-.047-2.015V84.192l-.047-1.187-.142-2.416-.047-.423v-.319l.094-.236.188-.089.141.124.094.273.047,1.7.094,1.929.047,1.887.047,1.124v.764l-.047,1.105-.094,1.446.047.678V95.7l-.047,1.169-.047,1.932v3.756l-.047,1.55v1.656l.047,1.25.047,2.206v3.629l-.047.213-.094.109-.141.067Zm1.034,6.382-.094-.21-.141-.06.047.169.094.21Zm.893-1.7.047-.15-.094-.082-.141.067-.047.15.047.169Zm.658-.251.235-.3.329-.348.188-.026.282.121.235-.176.094-.3-.047-.359.188-.281.235-.049-.047-.168-.187-.166-.281.135-.188.344-.188.282-.33.157-.376-.075-.188.218-.187.471.047.36.094.209Zm2.491-.68.564-1.034.235-.367-.093-.146-.33-.033-.47.352-.329.6-.141.449.047.233.141.124.236-.049Zm.751-.04v-.128l-.046-.041-.047.086.047.1Zm.33-2.195.047-.086-.094-.082-.141.131.047.1Zm.188,1.438.047-.341.094-.3.188-.218.141-.194-.047-.1-.047-.3.141-.386.188-.408-.047-.232-.376.5-.235.939-.094.618-.094.3.094.146Zm.845-.595.047-.213-.141,0-.095.173.047.168Zm.611-.61.187-.535.047-.4-.093-.146-.142-.251-.188-.1-.093.427.046.742.142.379Zm.8-.7v-.191l-.141,0-.094.108v.255l.142,0Zm.517.263.329-.475.188-.282-.095-.209-.282-.12-.141-.187.047-.341-.141-.124-.329.284-.094.3.094.21.094.4-.047.6v.382l.142,0Zm1.457-.631-.047-.36-.236.112-.141.386.188.1.188-.026Zm-.093-1.165-.189-.42-.093.109.093.273.142.188Zm.564.431.047-.213-.047-.233v-.255l.188-.408.093-.3-.047-.1-.234.24-.188.79.047.551Zm1.6-.509-.047-.3.047-.341v-.255l-.094-.273-.094-.146-.141,0-.188.472-.141.386-.141-.06-.142.067-.047.341.094.274.141-.131.094-.236.141-.194.141.124v.254l.047.233.188-.026Zm-.376,1.262-.046-.1-.095.045.047.1Zm.847-2.251v-.191l-.095-.082-.141.258.047.168Z" transform="translate(-302.475 -78.251)" fill="#006dab"/>
      </g>
      <text id="Klimabox" transform="translate(134.861 98.941)" fill="#197eb7" font-size="45" font-family="Helvetica" letter-spacing="-0.075em"><tspan x="0" y="0">Klimabox</tspan></text>
      <path id="Pfad_8" d="M335.218,48.559l.61.154.329.734.235,1.034.047,1.315-.047,1.423.047,1.25-.094,1,.047,1.633V62.9l.094.656.047,1.379v3.947l-.047,1.8v1.209l-.094,1.446-.047,1.423-.094,1.7.094,1.611-.094,1.382v2.929l.094.846v1.847l.047,1.569v3.5l-.187,1.108-.141.512-.236.558-.329.411-.564.46-.611.355-.61.164-.893.427-.752.422-.517-.008-.282-.247-.236-.46-.094-.4-.047-1-.047-1.25v-.955l-.094-1.356V87.872l.094-1.319.047-1.1V81.438l-.047-1.378-.094-1.165-.047-1.124-.047-1.887-.047-1.378.047-.468-.047-.678-.047-1.187.047-1.233v-.573l.047-.595-.047-.424.094-1.317V66.884l.047-2.187.141-1.467V61.764l-.047-1.06-.141-1.46v-.509l-.047-.551-.282-.375-.235-.014-2.068.987-1.034.43-.423.266-.47.16-.752.3-.939.385-.987.471-.752.551-.893.49-.846.4-.7.273-.941.449-.564.142-.845.4-1.128.729-1.128.539-.7.273-.658.314-.611.1-.517-.2-.516-.581-.094-.4V61.412l.094-.681.141-.513.376-.624.8-.955.658-.441.8-.319,2.443-1.166.8-.572.611-.228,2.678-1.279.7-.273,2.773-1.452,9.07-4.331ZM332.868,74l-.188.536v.637l.236-.24.281-.326.047.1-.142.386-.141.449.094.273.047.36-.094.3-.187.153-.142.131.094.465.282.438.282-.071.141.06-.235.431-.188.28.093.083.283-.2.234-.177.188.229.188.357.094.145.093-.236.142-.576.047-.469-.047-.359-.142-.633-.187-.484.187-.344.282-.39.141-.322-.235-.079-.282-.184-.188-.166-.188.09-.141,0-.047-.041.47-.734L334,73.717l-.188.026-.235.24-.282.135-.094-.146.047-.277-.095-.082Zm1.081-8.538-.047.277.282.121.329-.03.094-.109-.047-.169-.188-.229-.235-.079Zm-.893,13.669-.188.345.047.359.187.229-.141.385-.329.348-.094.172.094.21-.047.278-.047.149.047.041.188-.026.235-.112.188.1.142.124.047.1-.141.2-.47.1-.094.173.047.233v.509l.094.591.187.356-.093.427-.094.363-.47.224V85.2l.281.056.376.012.282.12.188.1-.188.535-.423.521-.047.149.141.06.187.038.236.015.282-.135.236-.367.094-.427.093-.873.141-.958.094-.3-.235-.079-.235-.142-.188-.1-.282.007-.188.09-.047-.1.047-.214.142-.194.235-.3.187-.153.188.1.188.165.235-.24.094-.554-.282-.184-.282.007.047-.277L334,81.23l-.236-.079-.187-.037-.047-.232.094-.364.376-.18.141-.194.141-.386v-.509l-.188-.292-.141.131-.141.067-.188-.165-.235-.079Zm1.222-10.642v.127l.188-.152V68.4Zm-.047,12.055.142.251v-.255l-.142-.187Zm-.657-11.782-.188.217-.376.243-.376.306-.047.086.142.187.188.483.093.592.094.274-.094.236-.141.258.094.145.094.338-.235.3-.423.265-.094.236.235.207v.254l.047.1.33-.157.329-.221.047.169.47-.033.564-.333v-.191l-.094-.019-.093.108L334,72.763l-.094-.211.141-.449.047-.532-.093-.21-.33.03-.141-.059.141-.068.236-.494.141-.449-.094-.21v-.255l.141-.194.188-.218v-.063l-.188-.038-.423.393-.376.435v-.383l.235-.558.235-.24.047-.213-.047-.106Zm-.611-2.319-.282.453.047.041.188.037.093.338.047.614-.094.3-.188.154-.282.135-.188.281.094.146.235-.049.376-.243.658-.314.094-.173.094-.3.188-.471.141-.513.094-.427-.141-.06-.376.052-.328-.034-.142-.187Zm1.175,8.8-.188.281-.188.218.047.423v.509l-.329.03-.188-.419.094-.554.329-.411.376-.307Zm-.611-12.377-.329.411-.094.363.236.079.376-.18.235-.3.141-.386.047-.277Zm.564,14.374-.141.131-.047-.041.047-.15.141-.068Zm-.845-12.711-.047.341.094.146.094.21.094.145.141,0,.282-.581.187-.535L334,64.167l-.47.1-.141-.06Zm.658-5.535.047.1.094.019v-.128l-.094-.082Zm-.658,1.969v.382l.094.146.094.4.047.36.282-.2.188-.344-.047-.3-.094-.4-.094-.274.047-.15.142-.194-.282.071Zm.516,23.31.142.315-.142.194-.187.026-.047-.3v-.318ZM333.808,67l-.094.363-.188.407-.141,0-.047-.1.141-.385.141-.323.094-.044Zm-.659,20.56.095.082.047.233.094.145.235-.048.141-.194v-.191l-.235-.015-.235.048-.047-.168-.095-.019Zm.33-27.788.094.209.141,0v-.255l-.141-.059ZM333.2,88.805l-.047.214.095.146.047.169.094-.045.188-.408.093-.363-.282.071Zm.282-30.312v.191l.094-.045.093-.171-.093-.083Zm-.094,14.052-.094.108-.094-.082.047-.149.141-.068Zm4.276,7.281V84.16l-.047,2.5-.047,1.614-.187,2.655-.188.974-.281.754-.376.8-.564.622-1.457.785-1.175.561-.094-.131-.047-.156v-.265l.094-.221,1-.459,1.194-.642.632-.531.42-.647.235-.884.188-.975L337,89.6l.047-1.172.094-1.549V85.027l-.047-6.611-.047-1.128V75.342l.047-4.975V61.787L337,60.239V54.049l.047-2.057.141-.333.142-.067.093.132.047.684.047,1.481v4.334l.047,2.277.047.951v7.96l-.094,5.441.047,1.3Zm-4.7,10.365v.128l.094-.109.047-.086-.047-.041Zm-.376-1.985.142.124.188-.089.047-.149-.188-.038-.235-.079Zm0-2.355.047.232.094.082.094-.172.047-.214-.141,0ZM332.21,78.9l.142.06.187-.089-.141-.061Zm.142,5.153.047.042.094-.109-.094-.019Zm-.142-12.92.047.233.141.124.047-.15-.047-.232-.094-.082Zm-1.081-17.056V54.2l.142,0,.047-.086-.094-.082Zm-1.184,4.863v.191l-.032.142-.095.109-1.808.863-1.11.467-.634.24-.825.393-.761.427-1.871.894-.951.517-.571.337-2.569,1.226-.348.1-.7.461-.539.32-.38.182-.571.209-.951.39-.983.342-.856.345-.159-.052-.095-.145v-.254l.095-.173.159-.076.222-.042,1.237-.4.6-.224.635-.3,1.015-.421,1.2-.638,1.332-.7,2.251-1.076,1.078-.579,1.236-.59,1.047-.563.824-.458.793-.314.761-.3.983-.406.635-.3.634-.239Zm-1.4-5.666.093.21.141.06-.047-.169-.094-.209Zm-.894,1.7-.047.15.094.082.141-.068.047-.15-.047-.168Zm-.658.25-.235.3-.329.348-.188.026-.282-.121-.234.176-.095.3.047.359-.188.281-.235.048.047.169.187.165.282-.135.188-.345.188-.281.33-.157.376.075.188-.217.187-.472-.047-.359-.094-.21Zm-2.491.68-.564,1.033-.235.367.094.146.329.034.47-.352.329-.6.141-.45-.047-.232-.141-.124-.236.049Zm-.751.04v.127l.047.042.047-.086-.047-.1Zm-.33,2.194-.047.087.094.082.142-.131-.047-.1Zm-.188-1.438-.046.341-.095.3-.188.217-.141.2.047.1.047.3-.141.387-.188.407.047.233.376-.5.236-.94.093-.618.094-.3-.094-.146Zm-.845.595-.047.214.141,0,.095-.172-.047-.169Zm-.611.61-.187.535-.047.4.094.146.141.251.188.1.093-.427-.046-.741-.142-.379Zm-.8.7V58.8l.141,0,.094-.109V58.43l-.141,0Zm-.516-.263-.33.476-.188.281.095.209.282.12.142.188-.047.34.141.124.33-.284.093-.3-.093-.21-.095-.4.047-.6v-.382l-.142,0ZM319,58.974l.047.361.236-.113.141-.386-.188-.1-.188.026Zm.094,1.166.188.419.093-.109-.093-.273-.142-.187Zm-.564-.432-.047.214.047.233v.254l-.188.408-.094.3.047.1.235-.24.188-.791-.047-.55Zm-1.6.509.047.3-.047.341v.254l.094.273.094.146.141,0,.188-.472.141-.386.142.061.141-.068.047-.341-.094-.274-.141.131-.094.236-.141.194-.141-.124v-.254L317.265,60l-.188.026Zm.376-1.262.047.106.094-.045-.047-.1Zm-.847,2.251V61.4l.095.082.141-.258-.047-.169Z" transform="translate(-39.51)" fill="#006dab"/>
    </g>
  </g>
</svg>
